<svg xmlns="http://www.w3.org/2000/svg" viewBox="0 0 100 100" width="100" height="100">
  <!-- Sombra inferior -->
  <ellipse cx="50" cy="86" rx="42" ry="10" fill="#000000" opacity="0.2" />
  
  <!-- Base de arroz blanca redondeada -->
  <path d="M 10 50 C 10 32, 90 32, 90 50 C 90 74, 10 74, 10 50 Z" fill="#FFFFFF" stroke="#E2E8F0" stroke-width="2" />
  
  <!-- Textura del arroz -->
  <ellipse cx="28" cy="60" rx="6" ry="3" fill="#EDF2F7" />
  <ellipse cx="45" cy="64" rx="7" ry="3.5" fill="#EDF2F7" />
  <ellipse cx="65" cy="62" rx="6.5" ry="3" fill="#EDF2F7" />
  <ellipse cx="78" cy="55" rx="5" ry="2.5" fill="#EDF2F7" />
  
  <!-- Loncha de salmón grande (Cubriendo todo el ancho) -->
  <path d="M 5 44 C 15 15, 85 15, 95 44 C 95 56, 5 56, 5 44 Z" fill="#FF5252" />
  <!-- Brillo y vetas del salmón -->
  <path d="M 12 40 C 22 24, 78 24, 88 40 C 88 46, 12 46, 12 40 Z" fill="#FF7B7B" opacity="0.6" />
  <path d="M 25 24 Q 30 40 33 52" stroke="#FFFFFF" stroke-width="3" stroke-linecap="round" opacity="0.75" />
  <path d="M 45 20 Q 50 38 53 52" stroke="#FFFFFF" stroke-width="3" stroke-linecap="round" opacity="0.75" />
  <path d="M 65 24 Q 70 40 73 52" stroke="#FFFFFF" stroke-width="3" stroke-linecap="round" opacity="0.75" />
  
  <!-- Banda de Nori (alga) central -->
  <rect x="41" y="20" width="18" height="48" rx="3" fill="#1A202C" />
  <rect x="44" y="20" width="3" height="48" fill="#2D3748" />
</svg>